<svg width="21" height="21" viewBox="0 0 21 21" fill="none" xmlns="http://www.w3.org/2000/svg">
<path d="M15.7004 3.40787L17.7125 5.52491M16.9943 1.54284L11.5536 7.26994C11.2724 7.56544 11.0807 7.94193 11.0026 8.35196L10.5 11L13.0156 10.47C13.4052 10.388 13.7624 10.187 14.0436 9.89098L19.4843 4.16388C19.6478 3.99178 19.7775 3.78747 19.866 3.56261C19.9545 3.33775 20 3.09675 20 2.85336C20 2.60997 19.9545 2.36897 19.866 2.14411C19.7775 1.91925 19.6478 1.71494 19.4843 1.54284C19.3208 1.37074 19.1267 1.23422 18.9131 1.14108C18.6995 1.04794 18.4705 1 18.2393 1C18.0081 1 17.7791 1.04794 17.5655 1.14108C17.3519 1.23422 17.1578 1.37074 16.9943 1.54284V1.54284Z" stroke="#FEFFFF" stroke-width="2" stroke-linecap="round" stroke-linejoin="round"/>
<path d="M17.15 14.6667V17.8667C17.15 18.4325 16.9231 18.9751 16.5193 19.3752C16.1155 19.7752 15.5678 20 14.9967 20H3.15333C2.58223 20 2.03452 19.7752 1.6307 19.3752C1.22687 18.9751 1 18.4325 1 17.8667V6.13333C1 5.56754 1.22687 5.02492 1.6307 4.62484C2.03452 4.22476 2.58223 4 3.15333 4H6.38333" stroke="#FEFFFF" stroke-width="2" stroke-linecap="round" stroke-linejoin="round"/>
</svg>
